<?xml version="1.0" encoding="iso-8859-1"?>
<!-- Generator: Adobe Illustrator 19.0.0, SVG Export Plug-In . SVG Version: 6.00 Build 0)  -->
<svg version="1.1" id="Capa_1" xmlns="http://www.w3.org/2000/svg" xmlns:xlink="http://www.w3.org/1999/xlink" x="0px" y="0px"
	 viewBox="0 0 448 448" style="enable-background:new 0 0 448 448;" xml:space="preserve">
<g>
	<g>
		<path d="M373.333,0H74.667C51.093,0,32,19.093,32,42.667v298.667C32,364.907,51.093,384,74.667,384H160l64,64l64-64h85.333
			C396.907,384,416,364.907,416,341.333V42.667C416,19.093,396.907,0,373.333,0z M224,70.4c31.787,0,57.6,25.813,57.6,57.6
			c0,31.787-25.813,57.6-57.6,57.6s-57.6-25.813-57.6-57.6C166.4,96.213,192.213,70.4,224,70.4z M352,298.667H96v-19.2
			c0-42.667,85.333-66.133,128-66.133s128,23.467,128,66.133V298.667z"/>
	</g>
</g>
<g>
</g>
<g>
</g>
<g>
</g>
<g>
</g>
<g>
</g>
<g>
</g>
<g>
</g>
<g>
</g>
<g>
</g>
<g>
</g>
<g>
</g>
<g>
</g>
<g>
</g>
<g>
</g>
<g>
</g>
</svg>
